<svg width="20" height="17" viewBox="0 0 20 17" fill="none" xmlns="http://www.w3.org/2000/svg">
<path d="M20 2.40549C19.2642 2.73216 18.4733 2.95216 17.6433 3.05132C18.4908 2.54382 19.1417 1.73966 19.4475 0.781323C18.655 1.25132 17.7767 1.59299 16.8417 1.77716C16.0942 0.979657 15.0267 0.481323 13.8467 0.481323C11.1975 0.481323 9.25083 2.95299 9.84917 5.51882C6.44 5.34799 3.41667 3.71466 1.3925 1.23216C0.3175 3.07632 0.835 5.48882 2.66167 6.71049C1.99 6.68882 1.35667 6.50466 0.804167 6.19716C0.759167 8.09799 2.12167 9.87632 4.095 10.2722C3.5175 10.4288 2.885 10.4655 2.24167 10.3422C2.76333 11.9722 4.27833 13.158 6.075 13.1913C4.35 14.5438 2.17667 15.148 0 14.8913C1.81583 16.0555 3.97333 16.7347 6.29 16.7347C13.9083 16.7347 18.2125 10.3005 17.9525 4.52966C18.7542 3.95049 19.45 3.22799 20 2.40549Z" fill="#584D62"/>
</svg>
